<svg width="400" height="200" viewBox="0 0 400 200" fill="none" xmlns="http://www.w3.org/2000/svg">
  <!-- Background circle for GO -->
  <circle cx="320" cy="100" r="80" fill="#2D1B69" stroke="none"/>
  
  <!-- SISIAGO text -->
  <text x="20" y="120" font-family="Arial, sans-serif" font-size="72" font-weight="bold" fill="#2D1B69">SISIAGO</text>
  
  <!-- Chart icon inside the circle -->
  <g transform="translate(290, 70)">
    <!-- Chart bars -->
    <rect x="10" y="35" width="8" height="25" fill="#00D084" rx="2"/>
    <rect x="22" y="25" width="8" height="35" fill="#00D084" rx="2"/>
    <rect x="34" y="15" width="8" height="45" fill="#00D084" rx="2"/>
    <rect x="46" y="20" width="8" height="40" fill="#00D084" rx="2"/>
    
    <!-- Trend line -->
    <path d="M 12 45 L 26 35 L 38 25 L 50 30" stroke="#FFFFFF" stroke-width="2" fill="none" stroke-linecap="round"/>
    
    <!-- Data points -->
    <circle cx="12" cy="45" r="2" fill="#FFFFFF"/>
    <circle cx="26" cy="35" r="2" fill="#FFFFFF"/>
    <circle cx="38" cy="25" r="2" fill="#FFFFFF"/>
    <circle cx="50" cy="30" r="2" fill="#FFFFFF"/>
  </g>
  
  <!-- Star accent -->
  <g transform="translate(370, 30)">
    <path d="M 0 -8 L 2 -2 L 8 -2 L 3 2 L 5 8 L 0 4 L -5 8 L -3 2 L -8 -2 L -2 -2 Z" fill="#FFFFFF"/>
  </g>
</svg>